<?xml version="1.0" encoding="UTF-8"?>
<svg width="120" height="120" viewBox="0 0 120 120" fill="none" xmlns="http://www.w3.org/2000/svg">
  <defs>
    <!-- Shimmering Background -->
    <radialGradient id="bgGlow" cx="50%" cy="50%" r="50%" fx="50%" fy="50%">
      <stop offset="0%" style="stop-color:#6366F1;stop-opacity:0.2"/>
      <stop offset="100%" style="stop-color:#1E1B4B;stop-opacity:0"/>
    </radialGradient>
    
    <!-- Hexagon Pattern -->
    <pattern id="hexPattern" x="0" y="0" width="20" height="20" patternUnits="userSpaceOnUse">
      <path d="M10 0L18.6603 5V15L10 20L1.33975 15V5L10 0Z" 
            fill="none" 
            stroke="#4F46E5" 
            stroke-width="0.5" 
            opacity="0.1"/>
    </pattern>

    <!-- Icon Gradient -->
    <linearGradient id="iconGradient" x1="0" y1="0" x2="1" y2="1">
      <stop offset="0%" style="stop-color:#818CF8"/>
      <stop offset="100%" style="stop-color:#4F46E5"/>
    </linearGradient>

    <!-- Outer Ring Gradient -->
    <linearGradient id="ringGradient" x1="0" y1="0" x2="1" y2="1">
      <stop offset="0%" style="stop-color:#C7D2FE"/>
      <stop offset="100%" style="stop-color:#6366F1"/>
    </linearGradient>

    <!-- Glow Effect -->
    <filter id="glow">
      <feGaussianBlur stdDeviation="2" result="coloredBlur"/>
      <feMerge>
        <feMergeNode in="coloredBlur"/>
        <feMergeNode in="SourceGraphic"/>
      </feMerge>
    </filter>
  </defs>

  <!-- Base Layer -->
  <circle cx="60" cy="60" r="60" fill="#0F172A"/>
  <circle cx="60" cy="60" r="58" fill="url(#bgGlow)"/>
  <circle cx="60" cy="60" r="58" fill="url(#hexPattern)"/>

  <!-- Decorative Rings -->
  <g opacity="0.6">
    <circle cx="60" cy="60" r="45" 
            stroke="url(#ringGradient)" 
            stroke-width="0.5" 
            stroke-dasharray="1,3"/>
    <circle cx="60" cy="60" r="52" 
            stroke="url(#ringGradient)" 
            stroke-width="0.5" 
            stroke-dasharray="1,3"/>
  </g>

  <!-- Achievement Icon Container -->
  <g filter="url(#glow)">
    <!-- Outer Ring -->
    <circle cx="60" cy="60" r="30" 
            stroke="url(#ringGradient)" 
            stroke-width="2" 
            fill="none"/>
    
    <!-- Icon Background -->
    <circle cx="60" cy="60" r="25" 
            fill="#1E1B4B"/>

    <!-- Consistency Icon -->
    <g transform="translate(42, 42)">
      <!-- Calendar Base -->
      <rect x="4" y="4" width="28" height="28" rx="2" 
            fill="url(#iconGradient)"/>
      
      <!-- Calendar Header -->
      <rect x="4" y="4" width="28" height="6" rx="1" 
            fill="#C7D2FE"/>
      
      <!-- Calendar Dots -->
      <circle cx="8" cy="7" r="1" fill="#1E1B4B"/>
      <circle cx="12" cy="7" r="1" fill="#1E1B4B"/>
      <circle cx="16" cy="7" r="1" fill="#1E1B4B"/>
      
      <!-- Calendar Grid -->
      <path d="M8 14H28M8 20H28M8 26H28" 
            stroke="#C7D2FE" 
            stroke-width="0.5" 
            opacity="0.5"/>
      <path d="M14 10V32M20 10V32M26 10V32" 
            stroke="#C7D2FE" 
            stroke-width="0.5" 
            opacity="0.5"/>
      
      <!-- Checkmark Streak -->
      <g transform="translate(8, 14)">
        <!-- First Check -->
        <path d="M2 4L4 6L8 2" 
              stroke="#C7D2FE" 
              stroke-width="1.5" 
              stroke-linecap="round" 
              stroke-linejoin="round"/>
        <!-- Second Check -->
        <path d="M8 10L10 12L14 8" 
              stroke="#C7D2FE" 
              stroke-width="1.5" 
              stroke-linecap="round" 
              stroke-linejoin="round"/>
        <!-- Third Check -->
        <path d="M14 16L16 18L20 14" 
              stroke="#C7D2FE" 
              stroke-width="1.5" 
              stroke-linecap="round" 
              stroke-linejoin="round"/>
      </g>
    </g>
  </g>

  <!-- Level Indicator -->
  <g transform="translate(80, 80)">
    <circle cx="0" cy="0" r="12" 
            fill="#1E1B4B" 
            stroke="url(#ringGradient)" 
            stroke-width="2"/>
    <text x="0" y="0" 
          text-anchor="middle" 
          dominant-baseline="middle" 
          fill="#C7D2FE" 
          font-family="system-ui" 
          font-size="12"
          font-weight="bold">3</text>
  </g>

  <!-- Accent Lines -->
  <path d="M60 10C40 10 20 30 20 60" 
        stroke="url(#ringGradient)" 
        stroke-width="0.5" 
        opacity="0.3"/>
  <path d="M60 10C80 10 100 30 100 60" 
        stroke="url(#ringGradient)" 
        stroke-width="0.5" 
        opacity="0.3"/>
</svg> 