<?xml version="1.0" encoding="UTF-8"?>
<svg width="512" height="512" viewBox="0 0 512 512" fill="none" xmlns="http://www.w3.org/2000/svg">
  <!-- Background Circle -->
  <circle cx="256" cy="256" r="248" fill="#8B0000" stroke="#FF0000" stroke-width="16"/>
  
  <!-- Trophy -->
  <path d="M192 160h128v48c0 35.35-28.65 64-64 64s-64-28.65-64-64v-48z" 
        fill="#FFD700" stroke="#FFA500" stroke-width="8"/>
  <rect x="240" y="272" width="32" height="80" fill="#FFD700" stroke="#FFA500" stroke-width="8"/>
  <path d="M192 352h128v32H192z" fill="#FFD700" stroke="#FFA500" stroke-width="8"/>
  
  <!-- Trophy Cup -->
  <path d="M160 160c-32 0-48-16-48-48h288c0 32-16 48-48 48" 
        stroke="#FFA500" stroke-width="8"/>
  
  <!-- Laurel Wreath -->
  <path d="M128 256c32-64 64-96 128-96 64 0 96 32 128 96" 
        stroke="#90EE90" stroke-width="8"/>
  <path d="M128 256c32 64 64 96 128 96 64 0 96-32 128-96" 
        stroke="#90EE90" stroke-width="8"/>
  
  <!-- Stars -->
  <path d="M256 80l20 40 40 20-40 20-20 40-20-40-40-20 40-20z" fill="#FFFFFF"/>
  <circle cx="176" cy="200" r="8" fill="#FFFFFF"/>
  <circle cx="336" cy="200" r="8" fill="#FFFFFF"/>
</svg> 