<?xml version="1.0" encoding="UTF-8"?>
<svg width="120" height="120" viewBox="0 0 120 120" fill="none" xmlns="http://www.w3.org/2000/svg">
  <defs>
    <!-- Shimmering Background -->
    <radialGradient id="bgGlow" cx="50%" cy="50%" r="50%" fx="50%" fy="50%">
      <stop offset="0%" style="stop-color:#6366F1;stop-opacity:0.2"/>
      <stop offset="100%" style="stop-color:#1E1B4B;stop-opacity:0"/>
    </radialGradient>
    
    <!-- Hexagon Pattern -->
    <pattern id="hexPattern" x="0" y="0" width="20" height="20" patternUnits="userSpaceOnUse">
      <path d="M10 0L18.6603 5V15L10 20L1.33975 15V5L10 0Z" 
            fill="none" 
            stroke="#4F46E5" 
            stroke-width="0.5" 
            opacity="0.1"/>
    </pattern>

    <!-- Icon Gradient -->
    <linearGradient id="iconGradient" x1="0" y1="0" x2="1" y2="1">
      <stop offset="0%" style="stop-color:#818CF8"/>
      <stop offset="100%" style="stop-color:#4F46E5"/>
    </linearGradient>

    <!-- Outer Ring Gradient -->
    <linearGradient id="ringGradient" x1="0" y1="0" x2="1" y2="1">
      <stop offset="0%" style="stop-color:#C7D2FE"/>
      <stop offset="100%" style="stop-color:#6366F1"/>
    </linearGradient>

    <!-- Glow Effect -->
    <filter id="glow">
      <feGaussianBlur stdDeviation="2" result="coloredBlur"/>
      <feMerge>
        <feMergeNode in="coloredBlur"/>
        <feMergeNode in="SourceGraphic"/>
      </feMerge>
    </filter>
  </defs>

  <!-- Base Layer -->
  <circle cx="60" cy="60" r="60" fill="#0F172A"/>
  <circle cx="60" cy="60" r="58" fill="url(#bgGlow)"/>
  <circle cx="60" cy="60" r="58" fill="url(#hexPattern)"/>

  <!-- Decorative Rings -->
  <g opacity="0.6">
    <circle cx="60" cy="60" r="45" 
            stroke="url(#ringGradient)" 
            stroke-width="0.5" 
            stroke-dasharray="1,3"/>
    <circle cx="60" cy="60" r="52" 
            stroke="url(#ringGradient)" 
            stroke-width="0.5" 
            stroke-dasharray="1,3"/>
  </g>

  <!-- Achievement Icon Container -->
  <g filter="url(#glow)">
    <!-- Outer Ring -->
    <circle cx="60" cy="60" r="30" 
            stroke="url(#ringGradient)" 
            stroke-width="2" 
            fill="none"/>
    
    <!-- Icon Background -->
    <circle cx="60" cy="60" r="25" 
            fill="#1E1B4B"/>

    <!-- Knowledge Seeker Icon -->
    <g transform="translate(42, 42)">
      <!-- Radiating Lines -->
      <g opacity="0.6">
        <path d="M18 4L18 8M18 28L18 32M4 18L8 18M28 18L32 18" 
              stroke="url(#ringGradient)" 
              stroke-width="1"/>
        <path d="M8 8L11 11M25 25L28 28M8 28L11 25M25 11L28 8" 
              stroke="url(#ringGradient)" 
              stroke-width="1"/>
      </g>
      
      <!-- Compass Base -->
      <circle cx="18" cy="18" r="14" 
              fill="url(#iconGradient)" 
              opacity="0.8"/>
      
      <!-- Compass Inner Circle -->
      <circle cx="18" cy="18" r="10" 
              stroke="#C7D2FE" 
              stroke-width="0.5" 
              fill="none"/>
      
      <!-- Compass Points -->
      <g transform="translate(18, 18)">
        <!-- North -->
        <path d="M0 -8L2 0L-2 0Z" 
              fill="#C7D2FE"/>
        <!-- South -->
        <path d="M0 8L2 0L-2 0Z" 
              fill="#C7D2FE" 
              opacity="0.6"/>
        <!-- East -->
        <path d="M8 0L0 2L0 -2Z" 
              fill="#C7D2FE" 
              opacity="0.8"/>
        <!-- West -->
        <path d="M-8 0L0 2L0 -2Z" 
              fill="#C7D2FE" 
              opacity="0.7"/>
      </g>
      
      <!-- Center Point -->
      <circle cx="18" cy="18" r="2" 
              fill="#C7D2FE"/>
      
      <!-- Cardinal Letters -->
      <g font-family="system-ui" 
         font-size="4" 
         font-weight="bold" 
         fill="#C7D2FE">
        <text x="17" y="8" 
              text-anchor="middle">N</text>
        <text x="17" y="30" 
              text-anchor="middle">S</text>
        <text x="30" y="19" 
              text-anchor="middle">E</text>
        <text x="4" y="19" 
              text-anchor="middle">W</text>
      </g>
    </g>
  </g>

  <!-- Level Indicator -->
  <g transform="translate(80, 80)">
    <circle cx="0" cy="0" r="12" 
            fill="#1E1B4B" 
            stroke="url(#ringGradient)" 
            stroke-width="2"/>
    <text x="0" y="0" 
          text-anchor="middle" 
          dominant-baseline="middle" 
          fill="#C7D2FE" 
          font-family="system-ui" 
          font-size="12"
          font-weight="bold">6</text>
  </g>

  <!-- Accent Lines -->
  <path d="M60 10C40 10 20 30 20 60" 
        stroke="url(#ringGradient)" 
        stroke-width="0.5" 
        opacity="0.3"/>
  <path d="M60 10C80 10 100 30 100 60" 
        stroke="url(#ringGradient)" 
        stroke-width="0.5" 
        opacity="0.3"/>
</svg> 