<?xml version="1.0" encoding="UTF-8"?>
<svg width="512" height="512" viewBox="0 0 512 512" fill="none" xmlns="http://www.w3.org/2000/svg">
  <!-- Background Circle -->
  <circle cx="256" cy="256" r="248" fill="#1E90FF" stroke="#4169E1" stroke-width="16"/>
  
  <!-- Crown -->
  <path d="M128 256l64-96 64 64 64-64 64 96H128z" fill="#FFD700" stroke="#FFA500" stroke-width="8"/>
  <path d="M148 256h216v64H148z" fill="#FFD700" stroke="#FFA500" stroke-width="8"/>
  
  <!-- Brain -->
  <path d="M256 320c-53.02 0-96 42.98-96 96 0-53.02 42.98-96 96-96s96 42.98 96 96c0-53.02-42.98-96-96-96z" 
        fill="#FF69B4" stroke="#FF1493" stroke-width="8"/>
  <path d="M208 368c16-16 32-16 48-16s32 0 48 16" stroke="#FF1493" stroke-width="8"/>
  
  <!-- Stars -->
  <path d="M160 160l-16-16 16-16 16 16z" fill="#FFFFFF"/>
  <path d="M352 160l-16-16 16-16 16 16z" fill="#FFFFFF"/>
  <path d="M256 128l-16-16 16-16 16 16z" fill="#FFFFFF"/>
</svg> 