<?xml version="1.0" encoding="UTF-8"?>
<svg width="512" height="512" viewBox="0 0 512 512" fill="none" xmlns="http://www.w3.org/2000/svg">
  <!-- Background Circle -->
  <circle cx="256" cy="256" r="248" fill="#4B0082" stroke="#800080" stroke-width="16"/>
  
  <!-- Open Book -->
  <path d="M128 256c0-20 16-36 36-36h184c20 0 36 16 36 36v120c0 20-16 36-36 36H164c-20 0-36-16-36-36V256z" 
        fill="#FFF" stroke="#DDA0DD" stroke-width="8"/>
  <path d="M256 220v192M128 256c80-40 176-40 256 0" 
        stroke="#DDA0DD" stroke-width="8"/>
  
  <!-- Graduation Cap -->
  <path d="M256 120l120 60-120 60-120-60z" fill="#FFD700"/>
  <path d="M196 180v60l60 30 60-30v-60" stroke="#FFD700" stroke-width="8"/>
  <rect x="246" y="90" width="20" height="40" fill="#FFD700"/>
  
  <!-- Decorative Lines -->
  <path d="M148 300h48M316 300h48M148 340h48M316 340h48" 
        stroke="#DDA0DD" stroke-width="4"/>
</svg> 