<?xml version="1.0" encoding="UTF-8"?>
<svg width="120" height="120" viewBox="0 0 120 120" fill="none" xmlns="http://www.w3.org/2000/svg">
  <defs>
    <!-- Shimmering Background -->
    <radialGradient id="bgGlow" cx="50%" cy="50%" r="50%" fx="50%" fy="50%">
      <stop offset="0%" style="stop-color:#6366F1;stop-opacity:0.2"/>
      <stop offset="100%" style="stop-color:#1E1B4B;stop-opacity:0"/>
    </radialGradient>
    
    <!-- Hexagon Pattern -->
    <pattern id="hexPattern" x="0" y="0" width="20" height="20" patternUnits="userSpaceOnUse">
      <path d="M10 0L18.6603 5V15L10 20L1.33975 15V5L10 0Z" 
            fill="none" 
            stroke="#4F46E5" 
            stroke-width="0.5" 
            opacity="0.1"/>
    </pattern>

    <!-- Icon Gradient -->
    <linearGradient id="iconGradient" x1="0" y1="0" x2="1" y2="1">
      <stop offset="0%" style="stop-color:#818CF8"/>
      <stop offset="100%" style="stop-color:#4F46E5"/>
    </linearGradient>

    <!-- Outer Ring Gradient -->
    <linearGradient id="ringGradient" x1="0" y1="0" x2="1" y2="1">
      <stop offset="0%" style="stop-color:#C7D2FE"/>
      <stop offset="100%" style="stop-color:#6366F1"/>
    </linearGradient>

    <!-- Node Gradient -->
    <linearGradient id="nodeGradient" x1="0" y1="0" x2="1" y2="1">
      <stop offset="0%" style="stop-color:#E0E7FF"/>
      <stop offset="100%" style="stop-color:#A5B4FC"/>
    </linearGradient>

    <!-- Glow Effect -->
    <filter id="glow">
      <feGaussianBlur stdDeviation="2" result="coloredBlur"/>
      <feMerge>
        <feMergeNode in="coloredBlur"/>
        <feMergeNode in="SourceGraphic"/>
      </feMerge>
    </filter>
  </defs>

  <!-- Base Layer -->
  <circle cx="60" cy="60" r="60" fill="#0F172A"/>
  <circle cx="60" cy="60" r="58" fill="url(#bgGlow)"/>
  <circle cx="60" cy="60" r="58" fill="url(#hexPattern)"/>

  <!-- Decorative Rings -->
  <g opacity="0.6">
    <circle cx="60" cy="60" r="45" 
            stroke="url(#ringGradient)" 
            stroke-width="0.5" 
            stroke-dasharray="1,3"/>
    <circle cx="60" cy="60" r="52" 
            stroke="url(#ringGradient)" 
            stroke-width="0.5" 
            stroke-dasharray="1,3"/>
  </g>

  <!-- Achievement Icon Container -->
  <g filter="url(#glow)">
    <!-- Outer Ring -->
    <circle cx="60" cy="60" r="30" 
            stroke="url(#ringGradient)" 
            stroke-width="2" 
            fill="none"/>
    
    <!-- Icon Background -->
    <circle cx="60" cy="60" r="25" 
            fill="#1E1B4B"/>

    <!-- Master of Many Icon -->
    <g transform="translate(42, 42)">
      <!-- Connection Lines -->
      <g opacity="0.6">
        <!-- Center to Nodes -->
        <path d="M18 18L18 8M18 18L26 13M18 18L26 23M18 18L10 23M18 18L10 13" 
              stroke="url(#ringGradient)" 
              stroke-width="1"/>
        <!-- Between Nodes -->
        <path d="M18 8L26 13M26 13L26 23M26 23L18 28M18 28L10 23M10 23L10 13M10 13L18 8" 
              stroke="url(#ringGradient)" 
              stroke-width="1"/>
      </g>
      
      <!-- Hexagonal Nodes -->
      <g>
        <!-- Center Node -->
        <path d="M18 15L21 16.5V19.5L18 21L15 19.5V16.5L18 15Z" 
              fill="url(#iconGradient)"/>
        
        <!-- Top Node -->
        <path d="M18 5L21 6.5V9.5L18 11L15 9.5V6.5L18 5Z" 
              fill="url(#nodeGradient)"/>
        
        <!-- Top Right Node -->
        <path d="M26 10L29 11.5V14.5L26 16L23 14.5V11.5L26 10Z" 
              fill="url(#nodeGradient)"/>
        
        <!-- Bottom Right Node -->
        <path d="M26 20L29 21.5V24.5L26 26L23 24.5V21.5L26 20Z" 
              fill="url(#nodeGradient)"/>
        
        <!-- Bottom Node -->
        <path d="M18 25L21 26.5V29.5L18 31L15 29.5V26.5L18 25Z" 
              fill="url(#nodeGradient)"/>
        
        <!-- Bottom Left Node -->
        <path d="M10 20L13 21.5V24.5L10 26L7 24.5V21.5L10 20Z" 
              fill="url(#nodeGradient)"/>
        
        <!-- Top Left Node -->
        <path d="M10 10L13 11.5V14.5L10 16L7 14.5V11.5L10 10Z" 
              fill="url(#nodeGradient)"/>
      </g>
      
      <!-- Node Centers -->
      <g>
        <circle cx="18" cy="18" r="1" fill="#C7D2FE"/>
        <circle cx="18" cy="8" r="1" fill="#C7D2FE"/>
        <circle cx="26" cy="13" r="1" fill="#C7D2FE"/>
        <circle cx="26" cy="23" r="1" fill="#C7D2FE"/>
        <circle cx="18" cy="28" r="1" fill="#C7D2FE"/>
        <circle cx="10" cy="23" r="1" fill="#C7D2FE"/>
        <circle cx="10" cy="13" r="1" fill="#C7D2FE"/>
      </g>
    </g>
  </g>

  <!-- Level Indicator -->
  <g transform="translate(80, 80)">
    <circle cx="0" cy="0" r="12" 
            fill="#1E1B4B" 
            stroke="url(#ringGradient)" 
            stroke-width="2"/>
    <text x="0" y="0" 
          text-anchor="middle" 
          dominant-baseline="middle" 
          fill="#C7D2FE" 
          font-family="system-ui" 
          font-size="12"
          font-weight="bold">7</text>
  </g>

  <!-- Accent Lines -->
  <path d="M60 10C40 10 20 30 20 60" 
        stroke="url(#ringGradient)" 
        stroke-width="0.5" 
        opacity="0.3"/>
  <path d="M60 10C80 10 100 30 100 60" 
        stroke="url(#ringGradient)" 
        stroke-width="0.5" 
        opacity="0.3"/>
</svg> 