<?xml version="1.0" encoding="UTF-8"?>
<svg width="120" height="120" viewBox="0 0 120 120" fill="none" xmlns="http://www.w3.org/2000/svg">
  <defs>
    <!-- Shimmering Background -->
    <radialGradient id="bgGlow" cx="50%" cy="50%" r="50%" fx="50%" fy="50%">
      <stop offset="0%" style="stop-color:#6366F1;stop-opacity:0.2"/>
      <stop offset="100%" style="stop-color:#1E1B4B;stop-opacity:0"/>
    </radialGradient>
    
    <!-- Hexagon Pattern -->
    <pattern id="hexPattern" x="0" y="0" width="20" height="20" patternUnits="userSpaceOnUse">
      <path d="M10 0L18.6603 5V15L10 20L1.33975 15V5L10 0Z" 
            fill="none" 
            stroke="#4F46E5" 
            stroke-width="0.5" 
            opacity="0.1"/>
    </pattern>

    <!-- Icon Gradient -->
    <linearGradient id="iconGradient" x1="0" y1="0" x2="1" y2="1">
      <stop offset="0%" style="stop-color:#818CF8"/>
      <stop offset="100%" style="stop-color:#4F46E5"/>
    </linearGradient>

    <!-- Outer Ring Gradient -->
    <linearGradient id="ringGradient" x1="0" y1="0" x2="1" y2="1">
      <stop offset="0%" style="stop-color:#C7D2FE"/>
      <stop offset="100%" style="stop-color:#6366F1"/>
    </linearGradient>

    <!-- Point Gradient -->
    <linearGradient id="pointGradient" x1="0" y1="0" x2="1" y2="1">
      <stop offset="0%" style="stop-color:#E0E7FF"/>
      <stop offset="100%" style="stop-color:#C7D2FE"/>
    </linearGradient>

    <!-- Glow Effect -->
    <filter id="glow">
      <feGaussianBlur stdDeviation="2" result="coloredBlur"/>
      <feMerge>
        <feMergeNode in="coloredBlur"/>
        <feMergeNode in="SourceGraphic"/>
      </feMerge>
    </filter>
  </defs>

  <!-- Base Layer -->
  <circle cx="60" cy="60" r="60" fill="#0F172A"/>
  <circle cx="60" cy="60" r="58" fill="url(#bgGlow)"/>
  <circle cx="60" cy="60" r="58" fill="url(#hexPattern)"/>

  <!-- Decorative Rings -->
  <g opacity="0.6">
    <circle cx="60" cy="60" r="45" 
            stroke="url(#ringGradient)" 
            stroke-width="0.5" 
            stroke-dasharray="1,3"/>
    <circle cx="60" cy="60" r="52" 
            stroke="url(#ringGradient)" 
            stroke-width="0.5" 
            stroke-dasharray="1,3"/>
  </g>

  <!-- Achievement Icon Container -->
  <g filter="url(#glow)">
    <!-- Outer Ring -->
    <circle cx="60" cy="60" r="30" 
            stroke="url(#ringGradient)" 
            stroke-width="2" 
            fill="none"/>
    
    <!-- Icon Background -->
    <circle cx="60" cy="60" r="25" 
            fill="#1E1B4B"/>

    <!-- Monthly Master Icon -->
    <g transform="translate(42, 42)">
      <!-- Orbital Rings -->
      <g transform="rotate(30, 18, 18)">
        <ellipse cx="18" cy="18" rx="14" ry="4" 
                 stroke="url(#iconGradient)" 
                 stroke-width="1" 
                 fill="none"/>
      </g>
      <g transform="rotate(-30, 18, 18)">
        <ellipse cx="18" cy="18" rx="14" ry="4" 
                 stroke="url(#iconGradient)" 
                 stroke-width="1" 
                 fill="none"/>
      </g>
      <g transform="rotate(90, 18, 18)">
        <ellipse cx="18" cy="18" rx="14" ry="4" 
                 stroke="url(#iconGradient)" 
                 stroke-width="1" 
                 fill="none"/>
      </g>
      
      <!-- 30 Points -->
      <g>
        <!-- Inner Ring Points (12 points) -->
        <circle cx="26" cy="18" r="1" fill="url(#pointGradient)"/>
        <circle cx="25" cy="22.9" r="1" fill="url(#pointGradient)"/>
        <circle cx="22" cy="25.9" r="1" fill="url(#pointGradient)"/>
        <circle cx="18" cy="26" r="1" fill="url(#pointGradient)"/>
        <circle cx="14" cy="25.9" r="1" fill="url(#pointGradient)"/>
        <circle cx="11" cy="22.9" r="1" fill="url(#pointGradient)"/>
        <circle cx="10" cy="18" r="1" fill="url(#pointGradient)"/>
        <circle cx="11" cy="13.1" r="1" fill="url(#pointGradient)"/>
        <circle cx="14" cy="10.1" r="1" fill="url(#pointGradient)"/>
        <circle cx="18" cy="10" r="1" fill="url(#pointGradient)"/>
        <circle cx="22" cy="10.1" r="1" fill="url(#pointGradient)"/>
        <circle cx="25" cy="13.1" r="1" fill="url(#pointGradient)"/>
        
        <!-- Middle Ring Points (10 points) -->
        <circle cx="30" cy="18" r="1" fill="url(#pointGradient)"/>
        <circle cx="27.8" cy="24.6" r="1" fill="url(#pointGradient)"/>
        <circle cx="22.6" cy="28.8" r="1" fill="url(#pointGradient)"/>
        <circle cx="18" cy="30" r="1" fill="url(#pointGradient)"/>
        <circle cx="13.4" cy="28.8" r="1" fill="url(#pointGradient)"/>
        <circle cx="8.2" cy="24.6" r="1" fill="url(#pointGradient)"/>
        <circle cx="6" cy="18" r="1" fill="url(#pointGradient)"/>
        <circle cx="8.2" cy="11.4" r="1" fill="url(#pointGradient)"/>
        <circle cx="13.4" cy="7.2" r="1" fill="url(#pointGradient)"/>
        <circle cx="22.6" cy="7.2" r="1" fill="url(#pointGradient)"/>
        
        <!-- Outer Ring Points (8 points) -->
        <circle cx="34" cy="18" r="1" fill="url(#pointGradient)"/>
        <circle cx="29.3" cy="29.3" r="1" fill="url(#pointGradient)"/>
        <circle cx="18" cy="34" r="1" fill="url(#pointGradient)"/>
        <circle cx="6.7" cy="29.3" r="1" fill="url(#pointGradient)"/>
        <circle cx="2" cy="18" r="1" fill="url(#pointGradient)"/>
        <circle cx="6.7" cy="6.7" r="1" fill="url(#pointGradient)"/>
        <circle cx="18" cy="2" r="1" fill="url(#pointGradient)"/>
        <circle cx="29.3" cy="6.7" r="1" fill="url(#pointGradient)"/>
      </g>
      
      <!-- Center Point -->
      <circle cx="18" cy="18" r="2" 
              fill="url(#pointGradient)"/>
    </g>
  </g>

  <!-- Level Indicator -->
  <g transform="translate(80, 80)">
    <circle cx="0" cy="0" r="12" 
            fill="#1E1B4B" 
            stroke="url(#ringGradient)" 
            stroke-width="2"/>
    <text x="0" y="0" 
          text-anchor="middle" 
          dominant-baseline="middle" 
          fill="#C7D2FE" 
          font-family="system-ui" 
          font-size="12"
          font-weight="bold">5</text>
  </g>

  <!-- Accent Lines -->
  <path d="M60 10C40 10 20 30 20 60" 
        stroke="url(#ringGradient)" 
        stroke-width="0.5" 
        opacity="0.3"/>
  <path d="M60 10C80 10 100 30 100 60" 
        stroke="url(#ringGradient)" 
        stroke-width="0.5" 
        opacity="0.3"/>
</svg> 