<?xml version="1.0" encoding="UTF-8"?>
<svg width="120" height="120" viewBox="0 0 120 120" fill="none" xmlns="http://www.w3.org/2000/svg">
  <defs>
    <!-- Shimmering Background -->
    <radialGradient id="bgGlow" cx="50%" cy="50%" r="50%" fx="50%" fy="50%">
      <stop offset="0%" style="stop-color:#6366F1;stop-opacity:0.2"/>
      <stop offset="100%" style="stop-color:#1E1B4B;stop-opacity:0"/>
    </radialGradient>
    
    <!-- Hexagon Pattern -->
    <pattern id="hexPattern" x="0" y="0" width="20" height="20" patternUnits="userSpaceOnUse">
      <path d="M10 0L18.6603 5V15L10 20L1.33975 15V5L10 0Z" 
            fill="none" 
            stroke="#4F46E5" 
            stroke-width="0.5" 
            opacity="0.1"/>
    </pattern>

    <!-- Icon Gradient -->
    <linearGradient id="iconGradient" x1="0" y1="0" x2="1" y2="1">
      <stop offset="0%" style="stop-color:#818CF8"/>
      <stop offset="100%" style="stop-color:#4F46E5"/>
    </linearGradient>

    <!-- Outer Ring Gradient -->
    <linearGradient id="ringGradient" x1="0" y1="0" x2="1" y2="1">
      <stop offset="0%" style="stop-color:#C7D2FE"/>
      <stop offset="100%" style="stop-color:#6366F1"/>
    </linearGradient>

    <!-- Star Gradient -->
    <linearGradient id="starGradient" x1="0" y1="0" x2="1" y2="1">
      <stop offset="0%" style="stop-color:#E0E7FF"/>
      <stop offset="100%" style="stop-color:#C7D2FE"/>
    </linearGradient>

    <!-- Glow Effect -->
    <filter id="glow">
      <feGaussianBlur stdDeviation="2" result="coloredBlur"/>
      <feMerge>
        <feMergeNode in="coloredBlur"/>
        <feMergeNode in="SourceGraphic"/>
      </feMerge>
    </filter>
  </defs>

  <!-- Base Layer -->
  <circle cx="60" cy="60" r="60" fill="#0F172A"/>
  <circle cx="60" cy="60" r="58" fill="url(#bgGlow)"/>
  <circle cx="60" cy="60" r="58" fill="url(#hexPattern)"/>

  <!-- Decorative Rings -->
  <g opacity="0.6">
    <circle cx="60" cy="60" r="45" 
            stroke="url(#ringGradient)" 
            stroke-width="0.5" 
            stroke-dasharray="1,3"/>
    <circle cx="60" cy="60" r="52" 
            stroke="url(#ringGradient)" 
            stroke-width="0.5" 
            stroke-dasharray="1,3"/>
  </g>

  <!-- Achievement Icon Container -->
  <g filter="url(#glow)">
    <!-- Outer Ring -->
    <circle cx="60" cy="60" r="30" 
            stroke="url(#ringGradient)" 
            stroke-width="2" 
            fill="none"/>
    
    <!-- Icon Background -->
    <circle cx="60" cy="60" r="25" 
            fill="#1E1B4B"/>

    <!-- Weekly Warrior Icon -->
    <g transform="translate(42, 42)">
      <!-- Shield -->
      <path d="M18 4L32 8V20C32 28 26 32 18 36C10 32 4 28 4 20V8L18 4Z" 
            fill="url(#iconGradient)"/>
      
      <!-- Shield Inner Border -->
      <path d="M18 6L30 9.5V20C30 26.5 25 30 18 33.5C11 30 6 26.5 6 20V9.5L18 6Z" 
            stroke="#C7D2FE" 
            stroke-width="0.5" 
            fill="none"/>
      
      <!-- Seven Stars -->
      <g transform="translate(9, 12)">
        <!-- Star Function -->
        <path d="M9 0L10.5 3H13.5L11 5L12 8L9 6.5L6 8L7 5L4.5 3H7.5L9 0Z" 
              fill="url(#starGradient)" 
              transform="translate(0, 0) scale(0.5)"/>
        <path d="M9 0L10.5 3H13.5L11 5L12 8L9 6.5L6 8L7 5L4.5 3H7.5L9 0Z" 
              fill="url(#starGradient)" 
              transform="translate(9, 2) scale(0.5)"/>
        <path d="M9 0L10.5 3H13.5L11 5L12 8L9 6.5L6 8L7 5L4.5 3H7.5L9 0Z" 
              fill="url(#starGradient)" 
              transform="translate(4, 6) scale(0.5)"/>
        <path d="M9 0L10.5 3H13.5L11 5L12 8L9 6.5L6 8L7 5L4.5 3H7.5L9 0Z" 
              fill="url(#starGradient)" 
              transform="translate(12, 8) scale(0.5)"/>
        <path d="M9 0L10.5 3H13.5L11 5L12 8L9 6.5L6 8L7 5L4.5 3H7.5L9 0Z" 
              fill="url(#starGradient)" 
              transform="translate(0, 12) scale(0.5)"/>
        <path d="M9 0L10.5 3H13.5L11 5L12 8L9 6.5L6 8L7 5L4.5 3H7.5L9 0Z" 
              fill="url(#starGradient)" 
              transform="translate(8, 14) scale(0.5)"/>
        <path d="M9 0L10.5 3H13.5L11 5L12 8L9 6.5L6 8L7 5L4.5 3H7.5L9 0Z" 
              fill="url(#starGradient)" 
              transform="translate(16, 12) scale(0.5)"/>
      </g>
    </g>
  </g>

  <!-- Level Indicator -->
  <g transform="translate(80, 80)">
    <circle cx="0" cy="0" r="12" 
            fill="#1E1B4B" 
            stroke="url(#ringGradient)" 
            stroke-width="2"/>
    <text x="0" y="0" 
          text-anchor="middle" 
          dominant-baseline="middle" 
          fill="#C7D2FE" 
          font-family="system-ui" 
          font-size="12"
          font-weight="bold">4</text>
  </g>

  <!-- Accent Lines -->
  <path d="M60 10C40 10 20 30 20 60" 
        stroke="url(#ringGradient)" 
        stroke-width="0.5" 
        opacity="0.3"/>
  <path d="M60 10C80 10 100 30 100 60" 
        stroke="url(#ringGradient)" 
        stroke-width="0.5" 
        opacity="0.3"/>
</svg> 